<?xml version="1.0" encoding="UTF-8"?><svg id="Layer_2" xmlns="http://www.w3.org/2000/svg" xmlns:xlink="http://www.w3.org/1999/xlink" viewBox="0 0 69.54 76.93"><defs><style>.cls-1{fill:url(#New_Gradient_Swatch_8);}.cls-1,.cls-2,.cls-3,.cls-4,.cls-5,.cls-6,.cls-7{stroke-width:0px;}.cls-2{fill:url(#New_Gradient_Swatch_6);}.cls-3{fill:url(#New_Gradient_Swatch_7);}.cls-4{fill:url(#New_Gradient_Swatch_8-2);}.cls-5{fill:url(#New_Gradient_Swatch_6-2);}.cls-6{fill:url(#New_Gradient_Swatch_7-2);}.cls-8{clip-path:url(#clippath);}.cls-7{fill:none;}.cls-9{clip-path:url(#clippath-1);}.cls-10{clip-path:url(#clippath-4);}.cls-11{clip-path:url(#clippath-3);}.cls-12{clip-path:url(#clippath-2);}.cls-13{clip-path:url(#clippath-5);}</style><clipPath id="clippath"><path class="cls-7" d="m53.22,42.84l-18.45,10.65,5.44,3.14c5.2,3,6.99,9.65,3.98,14.86-1.05,1.83-2.57,3.2-4.3,4.13.11-.06.22-.09.32-.15l23.89-13.79c5.2-3,6.99-9.65,3.98-14.86-2.01-3.49-5.67-5.44-9.43-5.44-1.85,0-3.72.47-5.43,1.46"/></clipPath><linearGradient id="New_Gradient_Swatch_6" x1="-3461.85" y1="803.04" x2="-3460.17" y2="803.04" gradientTransform="translate(-65899 -15243.08) rotate(180) scale(19.05 -19.05)" gradientUnits="userSpaceOnUse"><stop offset="0" stop-color="#cd0763"/><stop offset=".28" stop-color="#ca0761"/><stop offset=".47" stop-color="#c1075d"/><stop offset=".63" stop-color="#b10956"/><stop offset=".78" stop-color="#9c0b4c"/><stop offset=".92" stop-color="#800d40"/><stop offset="1" stop-color="#6c0f37"/></linearGradient><clipPath id="clippath-1"><path class="cls-7" d="m0,52.26C0,58.27,4.87,63.13,10.88,63.13s10.88-4.87,10.88-10.88v-21.31l-5.44,3.14c-5.2,3-11.85,1.22-14.86-3.98C.48,28.41,0,26.55,0,24.72v27.53Z"/></clipPath><linearGradient id="New_Gradient_Swatch_8" x1="-3301.11" y1="590.43" x2="-3299.43" y2="590.43" gradientTransform="translate(10743.98 -59952.09) rotate(-90) scale(18.18 -18.18)" gradientUnits="userSpaceOnUse"><stop offset="0" stop-color="#f9bc10"/><stop offset=".3" stop-color="#f8b910"/><stop offset=".51" stop-color="#f7b010"/><stop offset=".69" stop-color="#f4a011"/><stop offset=".85" stop-color="#f18b11"/><stop offset="1" stop-color="#ed7013"/></linearGradient><clipPath id="clippath-2"><path class="cls-7" d="m21.76,52.26c0,6.01-4.87,10.88-10.88,10.88-2.15,0-4.15-.64-5.84-1.72.14.09.26.18.4.27l23.89,13.79c5.2,3,11.85,1.22,14.86-3.98,3.01-5.2,1.22-11.86-3.98-14.86l-18.45-10.65v6.28Z"/></clipPath><linearGradient id="New_Gradient_Swatch_7" x1="-3439.63" y1="649.05" x2="-3437.95" y2="649.05" gradientTransform="translate(12284.08 -64884.02) rotate(-90) scale(18.89 -18.89)" gradientUnits="userSpaceOnUse"><stop offset="0" stop-color="#f3971c"/><stop offset=".3" stop-color="#f2941e"/><stop offset=".51" stop-color="#f18b27"/><stop offset=".69" stop-color="#ef7b36"/><stop offset=".86" stop-color="#ec664c"/><stop offset="1" stop-color="#e94d65"/></linearGradient><clipPath id="clippath-3"><path class="cls-7" d="m29.33,1.46L5.44,15.25C1.95,17.27,0,20.92,0,24.68c0,1.84.47,3.71,1.46,5.43,3,5.2,9.65,6.99,14.86,3.98l18.45-10.66-5.44-3.14c-3.49-2.02-5.44-5.67-5.44-9.43,0-1.85.47-3.72,1.46-5.43,1.05-1.83,2.57-3.2,4.31-4.13-.11.06-.22.09-.33.15"/></clipPath><linearGradient id="New_Gradient_Swatch_6-2" x1="-3171.2" y1="683.97" x2="-3169.52" y2="683.97" gradientTransform="translate(54982.78 11876.89) scale(17.34 -17.34)" xlink:href="#New_Gradient_Swatch_6"/><clipPath id="clippath-4"><path class="cls-7" d="m25.35,5.44c-.99,1.71-1.46,3.58-1.46,5.43,0,3.76,1.95,7.41,5.44,9.43l18.45,10.65v-6.28c0-6,4.87-10.87,10.88-10.87,2.11,0,4.06.63,5.73,1.66-.1-.06-.18-.15-.29-.21L40.21,1.46c-1.71-.99-3.58-1.46-5.43-1.46-3.76,0-7.41,1.95-9.43,5.44"/></clipPath><linearGradient id="New_Gradient_Swatch_7-2" x1="-3205.63" y1="838.01" x2="-3203.96" y2="838.01" gradientTransform="translate(-15906.72 61016.91) rotate(90) scale(19.03 -19.03)" xlink:href="#New_Gradient_Swatch_7"/><clipPath id="clippath-5"><path class="cls-7" d="m47.78,24.67v21.31l5.44-3.14c5.2-3,11.86-1.22,14.86,3.98,1.06,1.82,1.49,3.82,1.42,5.78,0-.12.04-.23.04-.35v-27.59c0-6-4.87-10.87-10.88-10.87s-10.88,4.87-10.88,10.87"/></clipPath><linearGradient id="New_Gradient_Swatch_8-2" x1="-3349.16" y1="899.69" x2="-3347.48" y2="899.69" gradientTransform="translate(-61095.36 -16397.54) rotate(-180) scale(18.26 -18.26)" xlink:href="#New_Gradient_Swatch_8"/></defs><g id="Layer_1-2"><g class="cls-8"><rect class="cls-2" x="28.57" y="34.5" width="48.72" height="47.99" transform="translate(-22.47 35.28) rotate(-30.75)"/></g><g class="cls-9"><rect class="cls-1" x="0" y="24.72" width="21.75" height="38.41"/></g><g class="cls-12"><rect class="cls-3" x="1.25" y="35.77" width="49.75" height="52.92" transform="translate(-40.58 51.92) rotate(-58.45)"/></g><g class="cls-11"><rect class="cls-5" x="-6.65" y="-5.02" width="48.08" height="48.44" transform="translate(-7.32 11.4) rotate(-30.32)"/></g><g class="cls-10"><rect class="cls-6" x="20.65" y="-9.79" width="46.98" height="50.52" transform="translate(8.77 46.09) rotate(-60.2)"/></g><g class="cls-13"><rect class="cls-4" x="39.05" y="21.91" width="39.25" height="22.58" transform="translate(24.27 91.18) rotate(-88.82)"/></g></g></svg>