<?xml version="1.0" encoding="UTF-8"?><svg id="Layer_2" xmlns="http://www.w3.org/2000/svg" xmlns:xlink="http://www.w3.org/1999/xlink" viewBox="0 0 403.74 114.73"><defs><style>.cls-1{fill:url(#New_Gradient_Swatch_8);}.cls-1,.cls-2,.cls-3,.cls-4,.cls-5,.cls-6,.cls-7,.cls-8{stroke-width:0px;}.cls-2{fill:url(#New_Gradient_Swatch_6);}.cls-3{fill:url(#New_Gradient_Swatch_7);}.cls-4{fill:url(#New_Gradient_Swatch_8-2);}.cls-5{fill:url(#New_Gradient_Swatch_6-2);}.cls-6{fill:url(#New_Gradient_Swatch_7-2);}.cls-9{clip-path:url(#clippath);}.cls-7{fill:none;}.cls-10{clip-path:url(#clippath-1);}.cls-11{clip-path:url(#clippath-4);}.cls-12{clip-path:url(#clippath-3);}.cls-13{clip-path:url(#clippath-2);}.cls-14{clip-path:url(#clippath-5);}.cls-8{fill:#1d1d1b;}</style><clipPath id="clippath"><path class="cls-7" d="m68.81,60.3l-18.45,10.65,5.44,3.14c5.2,3,6.99,9.65,3.98,14.86-1.05,1.83-2.57,3.2-4.3,4.13.11-.06.22-.09.32-.15l23.89-13.79c5.2-3,6.99-9.65,3.98-14.86-2.01-3.49-5.67-5.44-9.43-5.44-1.85,0-3.72.47-5.43,1.46"/></clipPath><linearGradient id="New_Gradient_Swatch_6" x1="-3266.5" y1="826.8" x2="-3264.83" y2="826.8" gradientTransform="translate(-62161.22 -15678.27) rotate(180) scale(19.05 -19.05)" gradientUnits="userSpaceOnUse"><stop offset="0" stop-color="#cd0763"/><stop offset=".28" stop-color="#ca0761"/><stop offset=".47" stop-color="#c1075d"/><stop offset=".63" stop-color="#b10956"/><stop offset=".78" stop-color="#9c0b4c"/><stop offset=".92" stop-color="#800d40"/><stop offset="1" stop-color="#6c0f37"/></linearGradient><clipPath id="clippath-1"><path class="cls-7" d="m15.6,69.72c0,6.01,4.87,10.88,10.88,10.88s10.88-4.87,10.88-10.88v-21.31l-5.44,3.14c-5.2,3-11.85,1.22-14.86-3.98-.98-1.7-1.45-3.56-1.46-5.39v27.53Z"/></clipPath><linearGradient id="New_Gradient_Swatch_8" x1="-3112.6" y1="628.81" x2="-3110.92" y2="628.81" gradientTransform="translate(11457.09 -56507.87) rotate(-90) scale(18.18 -18.18)" gradientUnits="userSpaceOnUse"><stop offset="0" stop-color="#f9bc10"/><stop offset=".3" stop-color="#f8b910"/><stop offset=".51" stop-color="#f7b010"/><stop offset=".69" stop-color="#f4a011"/><stop offset=".85" stop-color="#f18b11"/><stop offset="1" stop-color="#ed7013"/></linearGradient><clipPath id="clippath-2"><path class="cls-7" d="m37.35,69.72c0,6.01-4.87,10.88-10.88,10.88-2.15,0-4.15-.64-5.84-1.72.14.09.26.18.4.27l23.89,13.79c5.2,3,11.85,1.22,14.86-3.98,3.01-5.2,1.22-11.86-3.98-14.86l-18.45-10.65v6.28Z"/></clipPath><linearGradient id="New_Gradient_Swatch_7" x1="-3243.66" y1="682.2" x2="-3241.98" y2="682.2" gradientTransform="translate(12925.76 -61165.48) rotate(-90) scale(18.89 -18.89)" gradientUnits="userSpaceOnUse"><stop offset="0" stop-color="#f3971c"/><stop offset=".3" stop-color="#f2941e"/><stop offset=".51" stop-color="#f18b27"/><stop offset=".69" stop-color="#ef7b36"/><stop offset=".86" stop-color="#ec664c"/><stop offset="1" stop-color="#e94d65"/></linearGradient><clipPath id="clippath-3"><path class="cls-7" d="m44.93,18.92l-23.89,13.79c-3.49,2.01-5.44,5.67-5.44,9.43,0,1.84.47,3.71,1.46,5.43,3,5.2,9.65,6.99,14.86,3.98l18.45-10.66-5.44-3.14c-3.49-2.02-5.44-5.67-5.44-9.43,0-1.85.47-3.72,1.46-5.43,1.05-1.83,2.57-3.2,4.31-4.13-.11.06-.22.09-.33.15"/></clipPath><linearGradient id="New_Gradient_Swatch_6-2" x1="-2991.57" y1="718.45" x2="-2989.89" y2="718.45" gradientTransform="translate(51884.15 12492.12) scale(17.34 -17.34)" xlink:href="#New_Gradient_Swatch_6"/><clipPath id="clippath-4"><path class="cls-7" d="m40.95,22.9c-.99,1.71-1.46,3.58-1.46,5.43,0,3.76,1.95,7.41,5.44,9.43l18.45,10.65v-6.28c0-6,4.87-10.87,10.88-10.87,2.11,0,4.06.63,5.73,1.66-.1-.06-.18-.15-.29-.21l-23.89-13.79c-1.71-.99-3.58-1.46-5.43-1.46-3.76,0-7.41,1.95-9.43,5.44"/></clipPath><linearGradient id="New_Gradient_Swatch_7-2" x1="-3025.91" y1="862.93" x2="-3024.23" y2="862.93" gradientTransform="translate(-16365.39 57613.44) rotate(90) scale(19.03 -19.03)" xlink:href="#New_Gradient_Swatch_7"/><clipPath id="clippath-5"><path class="cls-7" d="m63.38,42.13v21.31l5.44-3.14c5.2-3,11.86-1.22,14.86,3.98,1.06,1.82,1.49,3.82,1.42,5.78,0-.12.04-.23.04-.35v-27.59c0-6-4.87-10.87-10.88-10.87s-10.88,4.87-10.88,10.87"/></clipPath><linearGradient id="New_Gradient_Swatch_8-2" x1="-3161.71" y1="919.14" x2="-3160.03" y2="919.14" gradientTransform="translate(-57656.47 -16735.26) rotate(-180) scale(18.26 -18.26)" xlink:href="#New_Gradient_Swatch_8"/></defs><g id="Layer_1-2"><path class="cls-8" d="m99.12,80.48V31.86l9.52-1.6v16.95c2.87-2.27,6.25-3.4,10.14-3.4,3.43-.05,6.53.76,9.31,2.43s4.99,3.9,6.63,6.7c1.64,2.8,2.47,5.96,2.47,9.48s-.83,6.61-2.5,9.41c-1.67,2.8-3.91,5.02-6.74,6.67-2.83,1.64-5.97,2.47-9.45,2.47-1.85,0-3.61-.26-5.28-.76-1.67-.51-3.24-1.25-4.72-2.22v2.5h-9.38Zm18.13-7.57c1.99,0,3.79-.45,5.38-1.35,1.6-.9,2.86-2.16,3.79-3.79.93-1.62,1.39-3.4,1.39-5.35s-.46-3.77-1.39-5.35c-.93-1.57-2.19-2.82-3.79-3.75-1.6-.93-3.39-1.39-5.38-1.39-1.76,0-3.38.29-4.86.87-1.48.58-2.73,1.45-3.75,2.6v14.1c1.02,1.07,2.28,1.9,3.78,2.5,1.5.6,3.11.9,4.83.9Z"/><path class="cls-8" d="m158.92,81.17c-3.61,0-6.89-.84-9.83-2.54-2.94-1.69-5.27-3.94-6.98-6.74-1.71-2.8-2.57-5.96-2.57-9.48s.82-6.63,2.47-9.48c1.64-2.85,3.88-5.1,6.7-6.77,2.82-1.67,5.95-2.5,9.38-2.5s6.56.85,9.27,2.54c2.71,1.69,4.84,3.99,6.39,6.91s2.33,6.25,2.33,10v2.5h-26.81c.42,1.44,1.11,2.73,2.08,3.89.97,1.16,2.15,2.05,3.54,2.67,1.39.63,2.89.94,4.51.94s3.06-.24,4.44-.73c1.39-.49,2.57-1.19,3.54-2.12l6.25,5.7c-2.22,1.81-4.5,3.13-6.84,3.96-2.34.83-4.97,1.25-7.88,1.25Zm-9.79-22.36h17.64c-.37-1.43-.98-2.7-1.84-3.79-.86-1.09-1.89-1.93-3.09-2.54-1.2-.6-2.5-.9-3.89-.9-1.48,0-2.82.29-4.03.87-1.2.58-2.21,1.41-3.02,2.5-.81,1.09-1.4,2.37-1.77,3.85Z"/><path class="cls-8" d="m180.17,80.48v-36.19h9.52v2.99c2.78-2.45,6.18-3.68,10.21-3.68,2.78,0,5.24.61,7.4,1.84,2.15,1.23,3.83,2.92,5.04,5.07,1.2,2.15,1.81,4.64,1.81,7.47v22.5h-9.45v-21.05c0-2.36-.68-4.22-2.05-5.59-1.37-1.36-3.21-2.05-5.52-2.05-1.62,0-3.06.31-4.31.94-1.25.63-2.29,1.52-3.13,2.67v25.07h-9.52Z"/><path class="cls-8" d="m236.91,81.17c-3.52,0-6.7-.82-9.55-2.47-2.85-1.64-5.12-3.89-6.81-6.74-1.69-2.85-2.54-6.05-2.54-9.62s.83-6.69,2.5-9.52c1.67-2.82,3.94-5.07,6.81-6.74,2.87-1.67,6.07-2.5,9.58-2.5,2.92,0,5.68.56,8.3,1.67,2.62,1.11,4.85,2.71,6.7,4.79l-5.76,6.18c-1.34-1.48-2.74-2.57-4.2-3.26-1.46-.69-3.05-1.04-4.76-1.04-1.85,0-3.52.45-5,1.35-1.48.9-2.64,2.14-3.47,3.72-.83,1.58-1.25,3.38-1.25,5.42s.44,3.72,1.32,5.31,2.06,2.86,3.54,3.79c1.48.93,3.17,1.39,5.07,1.39,1.62,0,3.14-.35,4.55-1.04,1.41-.69,2.77-1.74,4.06-3.13l5.7,5.97c-1.9,2.04-4.12,3.62-6.67,4.76-2.55,1.13-5.26,1.7-8.13,1.7Z"/><path class="cls-8" d="m254.9,80.48V31.86l9.52-2.08v17.5c2.78-2.45,6.18-3.68,10.21-3.68,2.78,0,5.24.61,7.4,1.84,2.15,1.23,3.83,2.92,5.04,5.07,1.2,2.15,1.81,4.64,1.81,7.47v22.5h-9.45v-21.05c0-2.36-.68-4.22-2.05-5.59-1.37-1.36-3.21-2.05-5.52-2.05-1.62,0-3.06.31-4.31.94-1.25.63-2.29,1.52-3.13,2.67v25.07h-9.52Z"/><path class="cls-8" d="m295.05,80.48V31.86l5.14-1.18v18.68c2.96-2.82,6.69-4.24,11.18-4.24,3.29,0,6.25.8,8.89,2.4,2.64,1.6,4.73,3.74,6.29,6.42,1.55,2.69,2.33,5.72,2.33,9.1s-.78,6.42-2.33,9.13c-1.55,2.71-3.65,4.86-6.29,6.46-2.64,1.6-5.63,2.4-8.96,2.4-2.04,0-4.02-.35-5.94-1.04-1.92-.69-3.67-1.69-5.24-2.99v3.47h-5.07Zm15.84-3.96c2.45,0,4.65-.59,6.6-1.77,1.94-1.18,3.48-2.78,4.62-4.79,1.13-2.01,1.7-4.29,1.7-6.84s-.57-4.84-1.7-6.88c-1.13-2.04-2.67-3.65-4.62-4.83-1.95-1.18-4.14-1.77-6.6-1.77-2.18,0-4.2.43-6.08,1.29-1.88.86-3.42,2.05-4.62,3.58v17.22c1.2,1.48,2.75,2.65,4.65,3.51,1.9.86,3.91,1.28,6.04,1.28Z"/><path class="cls-8" d="m350.61,81.1c-3.33,0-6.35-.8-9.06-2.4-2.71-1.6-4.86-3.76-6.46-6.49-1.6-2.73-2.4-5.79-2.4-9.17s.76-6.36,2.29-9.06,3.59-4.86,6.18-6.46c2.59-1.6,5.49-2.4,8.68-2.4s5.89.8,8.37,2.4c2.48,1.6,4.44,3.75,5.9,6.46,1.46,2.71,2.19,5.73,2.19,9.06v1.6h-28.55c.28,2.27,1.01,4.31,2.19,6.11s2.72,3.23,4.62,4.27c1.9,1.04,3.98,1.56,6.25,1.56,1.81,0,3.57-.28,5.28-.83,1.71-.56,3.15-1.34,4.31-2.36l3.2,3.4c-1.95,1.44-3.97,2.51-6.08,3.23-2.11.72-4.41,1.08-6.91,1.08Zm-12.71-20.56h23.27c-.28-2.08-.96-3.95-2.05-5.59-1.09-1.64-2.44-2.94-4.06-3.89-1.62-.95-3.4-1.42-5.35-1.42s-3.82.46-5.49,1.39c-1.67.93-3.06,2.21-4.17,3.86-1.11,1.64-1.83,3.53-2.15,5.66Z"/><path class="cls-8" d="m388.05,81.1c-3.33,0-6.35-.8-9.06-2.4-2.71-1.6-4.86-3.76-6.46-6.49-1.6-2.73-2.4-5.79-2.4-9.17s.76-6.36,2.29-9.06,3.59-4.86,6.18-6.46c2.59-1.6,5.49-2.4,8.68-2.4s5.89.8,8.37,2.4c2.48,1.6,4.44,3.75,5.9,6.46,1.46,2.71,2.19,5.73,2.19,9.06v1.6h-28.55c.28,2.27,1.01,4.31,2.19,6.11s2.72,3.23,4.62,4.27c1.9,1.04,3.98,1.56,6.25,1.56,1.81,0,3.57-.28,5.28-.83,1.71-.56,3.15-1.34,4.31-2.36l3.2,3.4c-1.95,1.44-3.97,2.51-6.08,3.23-2.11.72-4.41,1.08-6.91,1.08Zm-12.71-20.56h23.27c-.28-2.08-.96-3.95-2.05-5.59-1.09-1.64-2.44-2.94-4.06-3.89-1.62-.95-3.4-1.42-5.35-1.42s-3.82.46-5.49,1.39c-1.67.93-3.06,2.21-4.17,3.86-1.11,1.64-1.83,3.53-2.15,5.66Z"/><g class="cls-9"><rect class="cls-2" x="44.16" y="51.97" width="48.72" height="47.99" transform="translate(-29.2 45.71) rotate(-30.75)"/></g><g class="cls-10"><rect class="cls-1" x="15.6" y="42.19" width="21.75" height="38.41"/></g><g class="cls-13"><rect class="cls-3" x="16.84" y="53.23" width="49.75" height="52.92" transform="translate(-48.02 73.54) rotate(-58.45)"/></g><g class="cls-12"><rect class="cls-5" x="8.94" y="12.45" width="48.08" height="48.44" transform="translate(-14 21.67) rotate(-30.32)"/></g><g class="cls-11"><rect class="cls-6" x="36.24" y="7.68" width="46.98" height="50.52" transform="translate(1.47 68.4) rotate(-60.2)"/></g><g class="cls-14"><rect class="cls-4" x="54.64" y="39.37" width="39.25" height="22.58" transform="translate(22.08 123.87) rotate(-88.82)"/></g></g></svg>